<svg viewBox="120 300 786 396" fill="none" xmlns="http://www.w3.org/2000/svg">
<rect x="120" y="300" width="786" height="396" fill="#272727"/>
<path d="M153.488 660.582V634.231H177.478V386.173L147.604 372.543V353.916L232.247 332.108H248.995V476.128L249.9 476.582C269.364 451.14 291.543 432.059 324.586 432.059C362.608 432.059 388.408 461.135 388.408 506.567V634.231H408.325V660.582H298.333V634.231H316.891V502.024C316.891 484.306 310.102 479.762 294.712 479.762C278.417 479.762 263.027 484.76 248.995 495.209V634.231H267.553V660.582H153.488Z" fill="white"/>
<path d="M467.193 664.216C428.719 664.216 403.371 635.594 403.371 589.708V465.679H378.928V439.328H474.888V598.794C474.888 616.059 481.678 621.056 496.615 621.056C514.268 621.056 527.847 612.878 542.784 601.066V465.679H516.984V439.328H614.301V618.784L642.818 631.051V648.77L562.248 662.854H545.953V618.33L545.047 617.876C523.773 644.226 500.688 664.216 467.193 664.216Z" fill="white"/>
<path d="M716.334 664.216C666.996 664.216 623.995 623.328 623.995 546.548C623.995 470.222 674.691 432.059 726.292 432.059C752.092 432.059 771.103 442.508 785.588 457.955V386.173L753.903 372.543V353.916L839.905 332.108H856.653V618.784L885.622 631.051V648.77L805.051 662.854H788.304V621.056L787.398 620.602C768.388 647.407 747.566 664.216 716.334 664.216ZM739.419 630.142C759.335 630.142 773.819 614.696 785.588 599.249V481.125C774.725 472.948 762.503 467.042 746.208 467.042C732.629 467.042 723.123 472.039 716.786 479.762C708.639 489.758 704.113 515.654 704.113 551.545C704.113 589.254 709.092 612.878 717.239 621.51C723.576 627.871 730.366 630.142 739.419 630.142Z" fill="white"/>
</svg>
